# xmcd
#
# Track frame offsets: 
#        150
#        20577
#        36243
#        50672
#        75658
#        91808
#        114917
#        130137
#        147137
#        156032
#        166181
#        195786
#        211831
#
# Disc length: 2980 seconds
#
# Revision: 0
# Processed by: cddbd v1.5.2PL0 Copyright (c) Steve Scherf et al.
# Submitted via: ExactAudioCopy v1.1
#
DISCID=9b0ba20d
DTITLE=Joan of Ark - Time Capsoul
DYEAR=1900
DGENRE=Hip-Hop
TTITLE0=Music 2 Life
TTITLE1=Cocophunous feat. Mic Jordan
TTITLE2=Wisdom Passed
TTITLE3=Ribbons across the Pages feat. Self Advocate
TTITLE4=Lessons in Life feat. Mic Jordan
TTITLE5=Fire of Life
TTITLE6=Matterafact feat. Mic Jordan and Poor (T.O.L.)
TTITLE7=For Those Who Know
TTITLE8=Crakked
TTITLE9=The Dance
TTITLE10=Where My Grrls at?
TTITLE11=Anthony's Song feat. Mr. P Chill
TTITLE12=[bonus track]
EXTD=
EXTT0=
EXTT1=
EXTT2=
EXTT3=
EXTT4=
EXTT5=
EXTT6=
EXTT7=
EXTT8=
EXTT9=
EXTT10=
EXTT11=
EXTT12=
PLAYORDER=
